<svg xmlns="http://www.w3.org/2000/svg" viewBox="0 0 512 512">
	<path d="M234.827 63c0-34.738-28.262-63-63-63-27.75 0-51.686 17.874-59.94 43.596-24.036.279-46.061 14.115-56.993 35.255C24.486 79.695.006 104.82.006 135.583c0 5.523 4.477 10 10 10h60.5c5.522 0 10-4.477 10-10s-4.478-10-10-10H21.377c4.332-15.422 18.425-26.754 35.095-26.754 1.204 0 2.477.067 3.784.199a9.99 9.99 0 0 0 10.35-6.395c6.609-17.376 23.496-29.05 42.021-29.05 18.525 0 35.413 11.674 42.021 29.05a10.008 10.008 0 0 0 10.351 6.395 37.805 37.805 0 0 1 3.78-.199c16.672 0 30.766 11.332 35.098 26.754h-47.87c-5.522 0-10 4.477-10 10s4.478 10 10 10h59.242c5.522 0 10-4.477 10-10a56.621 56.621 0 0 0-7.948-29.006C228.524 94.925 234.827 79.504 234.827 63zm-30.703 28.371c-9.301-7.526-21.006-12.166-33.766-12.52-8.005-15.482-21.963-27.046-38.302-32.239C138.539 30.76 154.034 20 171.827 20c23.71 0 43 19.29 43 43 0 10.626-3.834 20.596-10.703 28.371z"
	/>
	<path d="M115.014 125.583h-.01c-5.522 0-9.995 4.477-9.995 10s4.482 10 10.005 10c5.523 0 10-4.477 10-10s-4.477-10-10-10zM511.077 497.817L386.601 227.542c-2.311-5.017-8.25-7.208-13.267-4.9-5.016 2.311-7.21 8.25-4.899 13.266l31.666 68.757-39.323-39.701a9.999 9.999 0 0 0-16.129 2.731l-29.283 61.386-30.722-62.344a9.998 9.998 0 0 0-14.357-4.004l-28.427 18.179 73.651-159.919 18.684 40.567c2.311 5.017 8.249 7.209 13.267 4.9 5.016-2.311 7.21-8.25 4.899-13.266l-27.767-60.289a10 10 0 0 0-18.166 0L204.303 314.646l-43.976-82.356a10.001 10.001 0 0 0-17.642 0L55.254 396.03a8.327 8.327 0 0 0-.157.295L1.185 497.29A10 10 0 0 0 10.006 512h491.988a9.998 9.998 0 0 0 9.083-14.183zM151.506 258.23l42.297 79.213-14.72 31.961-7.458-8.778a10.028 10.028 0 0 0-7.933-3.521 10 10 0 0 0-7.697 4.007l-20.413 27.305-14.438-24.944a10 10 0 0 0-14.208-3.307L91.612 370.4l59.894-112.17zM26.682 492l44.975-84.228 37.52-25.052 16.687 28.832a10.005 10.005 0 0 0 8.656 4.991c3.141 0 6.114-1.479 8.008-4.012l21.977-29.396 5.354 6.302L122.622 492h-95.94zm117.959 0l81.72-177.438 45.283-28.959 34.896 70.817a10 10 0 0 0 8.97 5.58h.063a9.998 9.998 0 0 0 8.962-5.694l32.04-67.165 67.99 68.642L486.379 492H144.641z"
	/>
	<path d="M368.595 189.92a10.093 10.093 0 0 0-7.07-2.93c-2.64 0-5.22 1.07-7.08 2.93-1.859 1.86-2.92 4.44-2.92 7.07s1.061 5.21 2.92 7.07a10.1 10.1 0 0 0 7.08 2.93c2.62 0 5.2-1.07 7.07-2.93 1.86-1.86 2.92-4.44 2.92-7.07s-1.06-5.21-2.92-7.07z"
	/>
</svg>