<svg xmlns="http://www.w3.org/2000/svg" viewBox="0 0 511.999 511.999">
	<path d="M416.749 151.315l-7.328-22.211a10.681 10.681 0 0 0-6-6.492l-10.438-4.383-38.312-47.664a10.94 10.94 0 0 0-2.312-2.133l-97.82-66.585a10.67 10.67 0 0 0-13.508 1.242 10.678 10.678 0 0 0-1.367 13.5l48.18 72.21c-4.156 6.289-11.328 16.875-19.312 27.609-17.547 23.546-26.445 30.835-29.914 33.046-9.672-8.734-17.812-23.742-23.672-43.687-5.054-17.227-6.546-31.984-6.554-32.125-.008-.016-.008-.023-.008-.023a4.462 4.462 0 0 0-.055-.367 8.28 8.28 0 0 0-.102-.68c-.008-.031-.008-.062-.016-.094l-4.477-21.336c-1.211-5.766-6.867-9.46-12.633-8.25-5.766 1.211-9.453 6.867-8.25 12.633l1.734 8.266c-16.281.242-44.727 2.195-74.453 11.391-40.508 12.531-70.414 34.227-88.882 64.484-38 62.266-24.867 156.883 39.031 281.209a10.67 10.67 0 0 0 9.086 5.781 10.629 10.629 0 0 0 9.492-5.062l51.335-83.53 22.453 21.625a10.673 10.673 0 0 0 17.086-3.219l55.179-119.609 15.188 4.523c29.992 34.461 4.953 99.226-21.695 147.959-30.828 56.391-71.007 104.578-71.476 105.141-3.359 4-3.32 9.859.094 13.812a10.678 10.678 0 0 0 13.648 2.141c1.758-1.078 43.391-26.734 87.695-67.234 26.164-23.922 47.758-48.047 64.195-71.718 20.922-30.156 33.562-59.734 37.531-87.952 5.828-41.258-6.594-79.594-36.922-113.984l-.984-11.812 15.172-18.445 5.719 11.445a10.644 10.644 0 0 0 5.234 4.984l43.812 19.375a10.619 10.619 0 0 0 9.296-.328l20.188-10.688a10.634 10.634 0 0 0 5.142-12.765zm-30.734 2.18l-35.562-15.734-11.359-22.695a10.657 10.657 0 0 0-17.766-2.008l-28.375 34.468a10.664 10.664 0 0 0-2.391 7.672l1.656 19.711c.188 2.344 1.172 4.562 2.75 6.305 14.5 15.852 24.641 32.671 30.125 50 4.969 15.695 6.281 32.282 3.891 49.321-8.016 56.874-55.938 111.154-94.727 146.67-10.133 9.266-20.188 17.781-29.648 25.375 10.585-15.641 21.921-33.656 32.375-52.75 18.992-34.687 31.023-65.749 35.766-92.327 6.312-35.358-.125-63.257-19.117-82.914a10.643 10.643 0 0 0-4.625-2.812l-26.859-8a10.81 10.81 0 0 0-3.047-.445c-4.07 0-7.906 2.343-9.687 6.203l-52.773 114.39-21.195-20.422a10.64 10.64 0 0 0-8.742-2.906 10.666 10.666 0 0 0-7.742 5L70.729 394.08C43.22 337.502 27.056 287.644 22.642 245.674c-4.016-38.101 1.648-70.031 16.82-94.89 15.679-25.687 41.585-44.273 76.984-55.226 29.414-9.102 57.625-10.461 71.828-10.461h.164a233.556 233.556 0 0 0 2.234 11.719c-24.508 2.5-76.726 12.602-109.585 53.492-27.398 34.086-34.711 81.187-21.734 139.992a10.676 10.676 0 0 0 12.718 8.125c5.75-1.281 9.383-6.969 8.117-12.719-11.5-52.118-5.633-93.133 17.438-121.93 29.367-36.64 79.546-44.375 98.718-46.007 1.953 5.945 4.102 11.492 6.445 16.617-9.438 2.336-22.062 6.578-34.727 14.227-23.125 13.961-50.687 42.078-50.679 96.718 0 5.891 4.773 10.672 10.664 10.672s10.664-4.781 10.664-10.672c0-35.585 13.367-61.843 39.734-78.062 13.805-8.492 27.875-12.062 35.562-13.484 4.289 5.836 8.992 10.734 14.102 14.664 2.703 2.086 5.984 3.188 9.484 3.188 7.148 0 14.758-4.453 24.656-14.445 6.273-6.328 13.609-15.055 21.797-25.922 13.719-18.187 25.094-36.07 25.562-36.82a10.664 10.664 0 0 0-.125-11.641l-21.688-32.516 51.234 34.883 39.016 48.523a10.735 10.735 0 0 0 4.188 3.156l8.452 3.547 2.984 9.047-7.654 4.046z"
	/>
	<path d="M498.076 207.409c-4.781-3.43-11.453-2.336-14.875 2.453-3.438 4.781-2.344 11.445 2.438 14.882 4 2.867 5.156 5.5 4.938 6.883-.156.969-.969 1.797-2.141 2.164-2.391.758-5.625-.664-8.641-3.789-23.108-23.96-56.093-55.148-56.437-55.46-4.281-4.047-11.031-3.852-15.078.43-4.031 4.281-3.844 11.031.438 15.078.328.312 32.953 31.156 55.719 54.765 6.608 6.844 14.687 10.508 22.687 10.508 2.594 0 5.188-.391 7.703-1.18 8.922-2.797 15.375-10.133 16.812-19.133 1.64-10.179-3.297-20.242-13.563-27.601z"
	/>
</svg>