<svg version="1.1" id="Layer_1" xmlns="http://www.w3.org/2000/svg"
	 viewBox="0 0 637 237">
<title>75_keyboard_layout</title>

<path d="M7.5,0.5h22c3.9,0,7,3.1,7,7v22c0,3.9-3.1,7-7,7h-22c-3.9,0-7-3.1-7-7v-22C0.5,3.6,3.6,0.5,7.5,0.5z"/>
<path d="M47.5,0.5h22c3.9,0,7,3.1,7,7v22c0,3.9-3.1,7-7,7h-22c-3.9,0-7-3.1-7-7v-22C40.5,3.6,43.6,0.5,47.5,0.5z"/>
<path d="M87.5,0.5h22c3.9,0,7,3.1,7,7v22c0,3.9-3.1,7-7,7h-22c-3.9,0-7-3.1-7-7v-22C80.5,3.6,83.6,0.5,87.5,0.5z"/>
<path d="M127.5,0.5h22c3.9,0,7,3.1,7,7v22c0,3.9-3.1,7-7,7h-22c-3.9,0-7-3.1-7-7v-22C120.5,3.6,123.6,0.5,127.5,0.5z"/>
<path d="M167.5,0.5h22c3.9,0,7,3.1,7,7v22c0,3.9-3.1,7-7,7h-22c-3.9,0-7-3.1-7-7v-22C160.5,3.6,163.6,0.5,167.5,0.5z"/>
<path d="M207.5,0.5h22c3.9,0,7,3.1,7,7v22c0,3.9-3.1,7-7,7h-22c-3.9,0-7-3.1-7-7v-22C200.5,3.6,203.6,0.5,207.5,0.5z"/>
<path d="M247.5,0.5h22c3.9,0,7,3.1,7,7v22c0,3.9-3.1,7-7,7h-22c-3.9,0-7-3.1-7-7v-22C240.5,3.6,243.6,0.5,247.5,0.5z"/>
<path d="M287.5,0.5h22c3.9,0,7,3.1,7,7v22c0,3.9-3.1,7-7,7h-22c-3.9,0-7-3.1-7-7v-22C280.5,3.6,283.6,0.5,287.5,0.5z"/>
<path d="M327.5,0.5h22c3.9,0,7,3.1,7,7v22c0,3.9-3.1,7-7,7h-22c-3.9,0-7-3.1-7-7v-22C320.5,3.6,323.6,0.5,327.5,0.5z"/>
<path d="M367.5,0.5h22c3.9,0,7,3.1,7,7v22c0,3.9-3.1,7-7,7h-22c-3.9,0-7-3.1-7-7v-22C360.5,3.6,363.6,0.5,367.5,0.5z"/>
<path d="M407.5,0.5h22c3.9,0,7,3.1,7,7v22c0,3.9-3.1,7-7,7h-22c-3.9,0-7-3.1-7-7v-22C400.5,3.6,403.6,0.5,407.5,0.5z"/>
<path d="M447.5,0.5h22c3.9,0,7,3.1,7,7v22c0,3.9-3.1,7-7,7h-22c-3.9,0-7-3.1-7-7v-22C440.5,3.6,443.6,0.5,447.5,0.5z"/>
<path d="M487.5,0.5h22c3.9,0,7,3.1,7,7v22c0,3.9-3.1,7-7,7h-22c-3.9,0-7-3.1-7-7v-22C480.5,3.6,483.6,0.5,487.5,0.5z"/>
<path d="M527.5,0.5h22c3.9,0,7,3.1,7,7v22c0,3.9-3.1,7-7,7h-22c-3.9,0-7-3.1-7-7v-22C520.5,3.6,523.6,0.5,527.5,0.5z"/>
<path d="M567.5,0.5h22c3.9,0,7,3.1,7,7v22c0,3.9-3.1,7-7,7h-22c-3.9,0-7-3.1-7-7v-22C560.5,3.6,563.6,0.5,567.5,0.5z"/>
<path d="M607.5,0.5h22c3.9,0,7,3.1,7,7v22c0,3.9-3.1,7-7,7h-22c-3.9,0-7-3.1-7-7v-22C600.5,3.6,603.6,0.5,607.5,0.5z"/>

<path d="M7.5,40.5h22c3.9,0,7,3.1,7,7v22c0,3.9-3.1,7-7,7h-22c-3.9,0-7-3.1-7-7v-22C0.5,43.6,3.6,40.5,7.5,40.5z"/>
<path d="M47.5,40.5h22c3.9,0,7,3.1,7,7v22c0,3.9-3.1,7-7,7h-22c-3.9,0-7-3.1-7-7v-22C40.5,43.6,43.6,40.5,47.5,40.5z"/>
<path d="M87.5,40.5h22c3.9,0,7,3.1,7,7v22c0,3.9-3.1,7-7,7h-22c-3.9,0-7-3.1-7-7v-22C80.5,43.6,83.6,40.5,87.5,40.5z"/>
<path d="M127.5,40.5h22c3.9,0,7,3.1,7,7v22c0,3.9-3.1,7-7,7h-22c-3.9,0-7-3.1-7-7v-22C120.5,43.6,123.6,40.5,127.5,40.5z"/>
<path d="M167.5,40.5h22c3.9,0,7,3.1,7,7v22c0,3.9-3.1,7-7,7h-22c-3.9,0-7-3.1-7-7v-22C160.5,43.6,163.6,40.5,167.5,40.5z"/>
<path d="M207.5,40.5h22c3.9,0,7,3.1,7,7v22c0,3.9-3.1,7-7,7h-22c-3.9,0-7-3.1-7-7v-22C200.5,43.6,203.6,40.5,207.5,40.5z"/>
<path d="M247.5,40.5h22c3.9,0,7,3.1,7,7v22c0,3.9-3.1,7-7,7h-22c-3.9,0-7-3.1-7-7v-22C240.5,43.6,243.6,40.5,247.5,40.5z"/>
<path d="M287.5,40.5h22c3.9,0,7,3.1,7,7v22c0,3.9-3.1,7-7,7h-22c-3.9,0-7-3.1-7-7v-22C280.5,43.6,283.6,40.5,287.5,40.5z"/>
<path d="M327.5,40.5h22c3.9,0,7,3.1,7,7v22c0,3.9-3.1,7-7,7h-22c-3.9,0-7-3.1-7-7v-22C320.5,43.6,323.6,40.5,327.5,40.5z"/>
<path d="M367.5,40.5h22c3.9,0,7,3.1,7,7v22c0,3.9-3.1,7-7,7h-22c-3.9,0-7-3.1-7-7v-22C360.5,43.6,363.6,40.5,367.5,40.5z"/>
<path d="M407.5,40.5h22c3.9,0,7,3.1,7,7v22c0,3.9-3.1,7-7,7h-22c-3.9,0-7-3.1-7-7v-22C400.5,43.6,403.6,40.5,407.5,40.5z"/>
<path d="M447.5,40.5h22c3.9,0,7,3.1,7,7v22c0,3.9-3.1,7-7,7h-22c-3.9,0-7-3.1-7-7v-22C440.5,43.6,443.6,40.5,447.5,40.5z"/>
<path d="M487.5,40.5h22c3.9,0,7,3.1,7,7v22c0,3.9-3.1,7-7,7h-22c-3.9,0-7-3.1-7-7v-22C480.5,43.6,483.6,40.5,487.5,40.5z"/>
<path d="M527.5,40.5h62c3.9,0,7,3.1,7,7v22c0,3.9-3.1,7-7,7h-62c-3.9,0-7-3.1-7-7v-22C520.5,43.6,523.6,40.5,527.5,40.5z"/>
<path d="M607.5,40.5h22c3.9,0,7,3.1,7,7v22c0,3.9-3.1,7-7,7h-22c-3.9,0-7-3.1-7-7v-22C600.5,43.6,603.6,40.5,607.5,40.5z"/>

<path d="M7.5,80.5h42c3.9,0,7,3.1,7,7v22c0,3.9-3.1,7-7,7h-42c-3.9,0-7-3.1-7-7v-22C0.5,83.6,3.6,80.5,7.5,80.5z"/>
<path d="M67.5,80.5h22c3.9,0,7,3.1,7,7v22c0,3.9-3.1,7-7,7h-22c-3.9,0-7-3.1-7-7v-22C60.5,83.6,63.6,80.5,67.5,80.5z"/>
<path d="M107.5,80.5h22c3.9,0,7,3.1,7,7v22c0,3.9-3.1,7-7,7h-22c-3.9,0-7-3.1-7-7v-22C100.5,83.6,103.6,80.5,107.5,80.5z"/>
<path d="M147.5,80.5h22c3.9,0,7,3.1,7,7v22c0,3.9-3.1,7-7,7h-22c-3.9,0-7-3.1-7-7v-22C140.5,83.6,143.6,80.5,147.5,80.5z"/>
<path d="M187.5,80.5h22c3.9,0,7,3.1,7,7v22c0,3.9-3.1,7-7,7h-22c-3.9,0-7-3.1-7-7v-22C180.5,83.6,183.6,80.5,187.5,80.5z"/>
<path d="M227.5,80.5h22c3.9,0,7,3.1,7,7v22c0,3.9-3.1,7-7,7h-22c-3.9,0-7-3.1-7-7v-22C220.5,83.6,223.6,80.5,227.5,80.5z"/>
<path d="M267.5,80.5h22c3.9,0,7,3.1,7,7v22c0,3.9-3.1,7-7,7h-22c-3.9,0-7-3.1-7-7v-22C260.5,83.6,263.6,80.5,267.5,80.5z"/>
<path d="M307.5,80.5h22c3.9,0,7,3.1,7,7v22c0,3.9-3.1,7-7,7h-22c-3.9,0-7-3.1-7-7v-22C300.5,83.6,303.6,80.5,307.5,80.5z"/>
<path d="M347.5,80.5h22c3.9,0,7,3.1,7,7v22c0,3.9-3.1,7-7,7h-22c-3.9,0-7-3.1-7-7v-22C340.5,83.6,343.6,80.5,347.5,80.5z"/>
<path d="M387.5,80.5h22c3.9,0,7,3.1,7,7v22c0,3.9-3.1,7-7,7h-22c-3.9,0-7-3.1-7-7v-22C380.5,83.6,383.6,80.5,387.5,80.5z"/>
<path d="M427.5,80.5h22c3.9,0,7,3.1,7,7v22c0,3.9-3.1,7-7,7h-22c-3.9,0-7-3.1-7-7v-22C420.5,83.6,423.6,80.5,427.5,80.5z"/>
<path d="M467.5,80.5h22c3.9,0,7,3.1,7,7v22c0,3.9-3.1,7-7,7h-22c-3.9,0-7-3.1-7-7v-22C460.5,83.6,463.6,80.5,467.5,80.5z"/>
<path d="M507.5,80.5h22c3.9,0,7,3.1,7,7v22c0,3.9-3.1,7-7,7h-22c-3.9,0-7-3.1-7-7v-22C500.5,83.6,503.6,80.5,507.5,80.5z"/>
<path d="M547.5,80.5h42c3.9,0,7,3.1,7,7v22c0,3.9-3.1,7-7,7h-42c-3.9,0-7-3.1-7-7v-22C540.5,83.6,543.6,80.5,547.5,80.5z"/>
<path d="M607.5,80.5h22c3.9,0,7,3.1,7,7v22c0,3.9-3.1,7-7,7h-22c-3.9,0-7-3.1-7-7v-22C600.5,83.6,603.6,80.5,607.5,80.5z"/>

<path d="M7.5,120.5h52c3.9,0,7,3.1,7,7v22c0,3.9-3.1,7-7,7h-52c-3.9,0-7-3.1-7-7v-22C0.5,123.6,3.6,120.5,7.5,120.5z"/>
<path d="M77.5,120.5h22c3.9,0,7,3.1,7,7v22c0,3.9-3.1,7-7,7h-22c-3.9,0-7-3.1-7-7v-22C70.5,123.6,73.6,120.5,77.5,120.5z"/>
<path d="M117.5,120.5h22c3.9,0,7,3.1,7,7v22c0,3.9-3.1,7-7,7h-22c-3.9,0-7-3.1-7-7v-22C110.5,123.6,113.6,120.5,117.5,120.5z"/>
<path d="M157.5,120.5h22c3.9,0,7,3.1,7,7v22c0,3.9-3.1,7-7,7h-22c-3.9,0-7-3.1-7-7v-22C150.5,123.6,153.6,120.5,157.5,120.5z"/>
<path d="M197.5,120.5h22c3.9,0,7,3.1,7,7v22c0,3.9-3.1,7-7,7h-22c-3.9,0-7-3.1-7-7v-22C190.5,123.6,193.6,120.5,197.5,120.5z"/>
<path d="M237.5,120.5h22c3.9,0,7,3.1,7,7v22c0,3.9-3.1,7-7,7h-22c-3.9,0-7-3.1-7-7v-22C230.5,123.6,233.6,120.5,237.5,120.5z"/>
<path d="M277.5,120.5h22c3.9,0,7,3.1,7,7v22c0,3.9-3.1,7-7,7h-22c-3.9,0-7-3.1-7-7v-22C270.5,123.6,273.6,120.5,277.5,120.5z"/>
<path d="M317.5,120.5h22c3.9,0,7,3.1,7,7v22c0,3.9-3.1,7-7,7h-22c-3.9,0-7-3.1-7-7v-22C310.5,123.6,313.6,120.5,317.5,120.5z"/>
<path d="M357.5,120.5h22c3.9,0,7,3.1,7,7v22c0,3.9-3.1,7-7,7h-22c-3.9,0-7-3.1-7-7v-22C350.5,123.6,353.6,120.5,357.5,120.5z"/>
<path d="M397.5,120.5h22c3.9,0,7,3.1,7,7v22c0,3.9-3.1,7-7,7h-22c-3.9,0-7-3.1-7-7v-22C390.5,123.6,393.6,120.5,397.5,120.5z"/>
<path d="M437.5,120.5h22c3.9,0,7,3.1,7,7v22c0,3.9-3.1,7-7,7h-22c-3.9,0-7-3.1-7-7v-22C430.5,123.6,433.6,120.5,437.5,120.5z"/>
<path d="M477.5,120.5h22c3.9,0,7,3.1,7,7v22c0,3.9-3.1,7-7,7h-22c-3.9,0-7-3.1-7-7v-22C470.5,123.6,473.6,120.5,477.5,120.5z"/>
<path d="M517.5,120.5h72c3.9,0,7,3.1,7,7v22c0,3.9-3.1,7-7,7h-72c-3.9,0-7-3.1-7-7v-22C510.5,123.6,513.6,120.5,517.5,120.5z"/>
<path d="M607.5,120.5h22c3.9,0,7,3.1,7,7v22c0,3.9-3.1,7-7,7h-22c-3.9,0-7-3.1-7-7v-22C600.5,123.6,603.6,120.5,607.5,120.5z"/>

<path d="M7.5,160.5h72c3.9,0,7,3.1,7,7v22c0,3.9-3.1,7-7,7h-72c-3.9,0-7-3.1-7-7v-22C0.5,163.6,3.6,160.5,7.5,160.5z"/>
<path d="M97.5,160.5h22c3.9,0,7,3.1,7,7v22c0,3.9-3.1,7-7,7h-22c-3.9,0-7-3.1-7-7v-22C90.5,163.6,93.6,160.5,97.5,160.5z"/>
<path d="M137.5,160.5h22c3.9,0,7,3.1,7,7v22c0,3.9-3.1,7-7,7h-22c-3.9,0-7-3.1-7-7v-22C130.5,163.6,133.6,160.5,137.5,160.5z"/>
<path d="M177.5,160.5h22c3.9,0,7,3.1,7,7v22c0,3.9-3.1,7-7,7h-22c-3.9,0-7-3.1-7-7v-22C170.5,163.6,173.6,160.5,177.5,160.5z"/>
<path d="M217.5,160.5h22c3.9,0,7,3.1,7,7v22c0,3.9-3.1,7-7,7h-22c-3.9,0-7-3.1-7-7v-22C210.5,163.6,213.6,160.5,217.5,160.5z"/>
<path d="M257.5,160.5h22c3.9,0,7,3.1,7,7v22c0,3.9-3.1,7-7,7h-22c-3.9,0-7-3.1-7-7v-22C250.5,163.6,253.6,160.5,257.5,160.5z"/>
<path d="M297.5,160.5h22c3.9,0,7,3.1,7,7v22c0,3.9-3.1,7-7,7h-22c-3.9,0-7-3.1-7-7v-22C290.5,163.6,293.6,160.5,297.5,160.5z"/>
<path d="M337.5,160.5h22c3.9,0,7,3.1,7,7v22c0,3.9-3.1,7-7,7h-22c-3.9,0-7-3.1-7-7v-22C330.5,163.6,333.6,160.5,337.5,160.5z"/>
<path d="M377.5,160.5h22c3.9,0,7,3.1,7,7v22c0,3.9-3.1,7-7,7h-22c-3.9,0-7-3.1-7-7v-22C370.5,163.6,373.6,160.5,377.5,160.5z"/>
<path d="M417.5,160.5h22c3.9,0,7,3.1,7,7v22c0,3.9-3.1,7-7,7h-22c-3.9,0-7-3.1-7-7v-22C410.5,163.6,413.6,160.5,417.5,160.5z"/>
<path d="M457.5,160.5h22c3.9,0,7,3.1,7,7v22c0,3.9-3.1,7-7,7h-22c-3.9,0-7-3.1-7-7v-22C450.5,163.6,453.6,160.5,457.5,160.5z"/>
<path d="M497.5,160.5h52c3.9,0,7,3.1,7,7v22c0,3.9-3.1,7-7,7h-52c-3.9,0-7-3.1-7-7v-22C490.5,163.6,493.6,160.5,497.5,160.5z"/>
<path d="M567.5,160.5h22c3.9,0,7,3.1,7,7v22c0,3.9-3.1,7-7,7h-22c-3.9,0-7-3.1-7-7v-22C560.5,163.6,563.6,160.5,567.5,160.5z"/>
<path d="M607.5,160.5h22c3.9,0,7,3.1,7,7v22c0,3.9-3.1,7-7,7h-22c-3.9,0-7-3.1-7-7v-22C600.5,163.6,603.6,160.5,607.5,160.5z"/>

<path d="M7.5,200.5h40c3.9,0,7,3.1,7,7v22c0,3.9-3.1,7-7,7h-40c-3.9,0-7-3.1-7-7v-22C0.5,203.6,3.6,200.5,7.5,200.5z"/>
<path d="M65.5,200.5h40c3.9,0,7,3.1,7,7v22c0,3.9-3.1,7-7,7h-40c-3.9,0-7-3.1-7-7v-22C58.5,203.6,61.6,200.5,65.5,200.5z"/>
<path d="M123.5,200.5h40c3.9,0,7,3.1,7,7v22c0,3.9-3.1,7-7,7h-40c-3.9,0-7-3.1-7-7v-22C116.5,203.6,119.6,200.5,123.5,200.5z"/>
<path d="M181.5,200.5h208c3.9,0,7,3.1,7,7v22c0,3.9-3.1,7-7,7h-208c-3.9,0-7-3.1-7-7v-22C174.5,203.6,177.6,200.5,181.5,200.5z"/>
<path d="M407.5,200.5h22c3.9,0,7,3.1,7,7v22c0,3.9-3.1,7-7,7h-22c-3.9,0-7-3.1-7-7v-22C400.5,203.6,403.6,200.5,407.5,200.5z"/>
<path d="M447.5,200.5h22c3.9,0,7,3.1,7,7v22c0,3.9-3.1,7-7,7h-22c-3.9,0-7-3.1-7-7v-22C440.5,203.6,443.6,200.5,447.5,200.5z"/>
<path d="M487.5,200.5h22c3.9,0,7,3.1,7,7v22c0,3.9-3.1,7-7,7h-22c-3.9,0-7-3.1-7-7v-22C480.5,203.6,483.6,200.5,487.5,200.5z"/>
<path d="M527.5,200.5h22c3.9,0,7,3.1,7,7v22c0,3.9-3.1,7-7,7h-22c-3.9,0-7-3.1-7-7v-22C520.5,203.6,523.6,200.5,527.5,200.5z"/>
<path d="M567.5,200.5h22c3.9,0,7,3.1,7,7v22c0,3.9-3.1,7-7,7h-22c-3.9,0-7-3.1-7-7v-22C560.5,203.6,563.6,200.5,567.5,200.5z"/>
<path d="M607.5,200.5h22c3.9,0,7,3.1,7,7v22c0,3.9-3.1,7-7,7h-22c-3.9,0-7-3.1-7-7v-22C600.5,203.6,603.6,200.5,607.5,200.5z"/>
</svg>
